<svg xmlns="http://www.w3.org/2000/svg" xmlns:xlink="http://www.w3.org/1999/xlink" width="200" zoomAndPan="magnify" viewBox="0 0 150 56.249996" height="75" preserveAspectRatio="xMidYMid meet" version="1.0"><defs><g/><clipPath id="808c49c15a"><path d="M 38 11 L 49 11 L 49 24 L 38 24 Z M 38 11 " clip-rule="nonzero"/></clipPath><clipPath id="0da1072b6d"><path d="M -3.875 14.355469 L 41.792969 -2.980469 L 58.605469 41.300781 L 12.9375 58.640625 Z M -3.875 14.355469 " clip-rule="nonzero"/></clipPath><clipPath id="a8c47c6a6b"><path d="M -3.875 14.355469 L 41.792969 -2.980469 L 58.605469 41.300781 L 12.9375 58.640625 Z M -3.875 14.355469 " clip-rule="nonzero"/></clipPath><clipPath id="6d740665fa"><path d="M 3 25 L 15 25 L 15 39 L 3 39 Z M 3 25 " clip-rule="nonzero"/></clipPath><clipPath id="d85c2de8ab"><path d="M -3.875 14.355469 L 41.792969 -2.980469 L 58.605469 41.300781 L 12.9375 58.640625 Z M -3.875 14.355469 " clip-rule="nonzero"/></clipPath><clipPath id="2e0e2e51fb"><path d="M -3.875 14.355469 L 41.792969 -2.980469 L 58.605469 41.300781 L 12.9375 58.640625 Z M -3.875 14.355469 " clip-rule="nonzero"/></clipPath><clipPath id="9d52cbb40e"><path d="M 7 8 L 23 8 L 23 27 L 7 27 Z M 7 8 " clip-rule="nonzero"/></clipPath><clipPath id="cdead08a1b"><path d="M -3.875 14.355469 L 41.792969 -2.980469 L 58.605469 41.300781 L 12.9375 58.640625 Z M -3.875 14.355469 " clip-rule="nonzero"/></clipPath><clipPath id="7663cd1375"><path d="M -3.875 14.355469 L 41.792969 -2.980469 L 58.605469 41.300781 L 12.9375 58.640625 Z M -3.875 14.355469 " clip-rule="nonzero"/></clipPath><clipPath id="a59e01cce7"><path d="M 22 3 L 38 3 L 38 21 L 22 21 Z M 22 3 " clip-rule="nonzero"/></clipPath><clipPath id="317fa9c665"><path d="M -3.875 14.355469 L 41.792969 -2.980469 L 58.605469 41.300781 L 12.9375 58.640625 Z M -3.875 14.355469 " clip-rule="nonzero"/></clipPath><clipPath id="16ea2017f1"><path d="M -3.875 14.355469 L 41.792969 -2.980469 L 58.605469 41.300781 L 12.9375 58.640625 Z M -3.875 14.355469 " clip-rule="nonzero"/></clipPath><clipPath id="155dcb2683"><path d="M 14 23 L 50 23 L 50 52 L 14 52 Z M 14 23 " clip-rule="nonzero"/></clipPath><clipPath id="969849241a"><path d="M -3.875 14.355469 L 41.792969 -2.980469 L 58.605469 41.300781 L 12.9375 58.640625 Z M -3.875 14.355469 " clip-rule="nonzero"/></clipPath><clipPath id="34aab3fd23"><path d="M -3.875 14.355469 L 41.792969 -2.980469 L 58.605469 41.300781 L 12.9375 58.640625 Z M -3.875 14.355469 " clip-rule="nonzero"/></clipPath></defs><g clip-path="url(#808c49c15a)"><g clip-path="url(#0da1072b6d)"><g clip-path="url(#a8c47c6a6b)"><path fill="#ff914d" d="M 48.828125 17.207031 C 49.265625 20.570312 47.394531 23.582031 44.648438 23.941406 C 41.902344 24.296875 39.324219 21.863281 38.886719 18.5 C 38.449219 15.136719 38.761719 12.019531 41.507812 11.664062 C 44.25 11.304688 48.390625 13.84375 48.828125 17.207031 " fill-opacity="1" fill-rule="nonzero"/></g></g></g><g clip-path="url(#6d740665fa)"><g clip-path="url(#d85c2de8ab)"><g clip-path="url(#2e0e2e51fb)"><path fill="#ff914d" d="M 4.886719 35.234375 C 6.792969 38.039062 10.191406 39.050781 12.484375 37.496094 C 14.773438 35.941406 15.085938 32.410156 13.183594 29.605469 C 11.28125 26.796875 8.945312 24.585938 6.652344 26.140625 C 4.363281 27.695312 2.984375 32.429688 4.886719 35.234375 " fill-opacity="1" fill-rule="nonzero"/></g></g></g><g clip-path="url(#9d52cbb40e)"><g clip-path="url(#cdead08a1b)"><g clip-path="url(#7663cd1375)"><path fill="#ff914d" d="M 8.648438 22.117188 C 11.273438 25.984375 16.015625 27.34375 19.242188 25.15625 C 22.46875 22.964844 22.957031 18.054688 20.332031 14.1875 C 17.707031 10.324219 14.511719 7.519531 11.285156 9.710938 C 8.058594 11.898438 6.023438 18.25 8.648438 22.117188 " fill-opacity="1" fill-rule="nonzero"/></g></g></g><g clip-path="url(#a59e01cce7)"><g clip-path="url(#317fa9c665)"><g clip-path="url(#16ea2017f1)"><path fill="#ff914d" d="M 37.085938 11.320312 C 37.6875 15.957031 35.042969 20.121094 31.175781 20.625 C 27.3125 21.125 23.6875 17.777344 23.085938 13.144531 C 22.480469 8.511719 22.964844 4.167969 26.832031 3.664062 C 30.699219 3.160156 36.484375 6.6875 37.085938 11.320312 " fill-opacity="1" fill-rule="nonzero"/></g></g></g><g clip-path="url(#155dcb2683)"><g clip-path="url(#969849241a)"><g clip-path="url(#34aab3fd23)"><path fill="#ff914d" d="M 26.535156 24.09375 C 16.453125 27.921875 13.535156 40.363281 15.351562 45.152344 C 17.015625 49.539062 20.761719 52.183594 25.480469 51.082031 C 28.324219 50.417969 30.179688 48.042969 32.488281 46.335938 C 36.90625 43.0625 43.492188 46.957031 47.5 42.289062 C 49.769531 39.644531 50.085938 35.609375 48.878906 32.425781 C 47.058594 27.636719 36.617188 20.265625 26.535156 24.09375 " fill-opacity="1" fill-rule="nonzero"/></g></g></g><g fill="#8c52ff" fill-opacity="1"><g transform="translate(52.942705, 47.368414)"><g><path d="M 7.53125 0.046875 C 6.164062 0.046875 5.0625 -0.394531 4.21875 -1.28125 C 3.375 -2.175781 2.722656 -3.375 2.265625 -4.875 C 1.816406 -6.375 1.515625 -8.015625 1.359375 -9.796875 C 1.210938 -11.578125 1.140625 -13.347656 1.140625 -15.109375 C 1.140625 -17.160156 1.414062 -19.164062 1.96875 -21.125 C 2.53125 -23.09375 3.394531 -24.867188 4.5625 -26.453125 C 5.726562 -28.046875 7.203125 -29.3125 8.984375 -30.25 C 10.765625 -31.1875 12.878906 -31.65625 15.328125 -31.65625 C 17.804688 -31.65625 20.050781 -31.140625 22.0625 -30.109375 C 24.070312 -29.085938 25.679688 -27.625 26.890625 -25.71875 C 28.109375 -23.8125 28.71875 -21.546875 28.71875 -18.921875 C 28.71875 -16.554688 28.351562 -14.523438 27.625 -12.828125 C 26.894531 -11.140625 25.914062 -9.757812 24.6875 -8.6875 C 23.46875 -7.613281 22.109375 -6.816406 20.609375 -6.296875 C 19.117188 -5.785156 17.601562 -5.550781 16.0625 -5.59375 C 14.519531 -5.644531 13.082031 -5.941406 11.75 -6.484375 C 11.894531 -5.753906 11.972656 -5.007812 11.984375 -4.25 C 12.003906 -3.5 11.882812 -2.796875 11.625 -2.140625 C 11.375 -1.492188 10.921875 -0.96875 10.265625 -0.5625 C 9.617188 -0.15625 8.707031 0.046875 7.53125 0.046875 Z M 15.78125 -12.65625 C 16.875 -12.65625 17.820312 -13.054688 18.625 -13.859375 C 19.425781 -14.660156 19.828125 -15.585938 19.828125 -16.640625 C 19.828125 -17.734375 19.425781 -18.679688 18.625 -19.484375 C 17.820312 -20.285156 16.875 -20.6875 15.78125 -20.6875 C 14.695312 -20.6875 13.753906 -20.285156 12.953125 -19.484375 C 12.148438 -18.679688 11.75 -17.734375 11.75 -16.640625 C 11.75 -15.585938 12.148438 -14.660156 12.953125 -13.859375 C 13.753906 -13.054688 14.695312 -12.65625 15.78125 -12.65625 Z M 15.78125 -12.65625 "/></g></g></g><g fill="#8c52ff" fill-opacity="1"><g transform="translate(80.019927, 47.368414)"><g><path d="M 12.515625 0 C 10.253906 0 8.265625 -0.441406 6.546875 -1.328125 C 4.835938 -2.222656 3.507812 -3.445312 2.5625 -5 C 1.613281 -6.5625 1.140625 -8.359375 1.140625 -10.390625 C 1.140625 -12.347656 1.613281 -14.160156 2.5625 -15.828125 C 3.507812 -17.492188 4.820312 -18.820312 6.5 -19.8125 C 8.1875 -20.8125 10.117188 -21.3125 12.296875 -21.3125 C 14.316406 -21.3125 16.050781 -20.90625 17.5 -20.09375 C 18.957031 -19.28125 20.070312 -18.242188 20.84375 -16.984375 C 21.613281 -15.734375 22 -14.410156 22 -13.015625 C 22 -11.628906 21.679688 -10.488281 21.046875 -9.59375 C 20.410156 -8.695312 19.585938 -8.015625 18.578125 -7.546875 C 17.566406 -7.078125 16.484375 -6.765625 15.328125 -6.609375 C 14.179688 -6.460938 13.078125 -6.441406 12.015625 -6.546875 C 10.960938 -6.660156 10.070312 -6.835938 9.34375 -7.078125 C 9.882812 -6.203125 10.570312 -5.601562 11.40625 -5.28125 C 12.238281 -4.96875 13.113281 -4.832031 14.03125 -4.875 C 14.957031 -4.914062 15.800781 -5.015625 16.5625 -5.171875 C 17.5 -5.378906 18.269531 -5.332031 18.875 -5.03125 C 19.476562 -4.726562 19.796875 -4.242188 19.828125 -3.578125 C 19.859375 -3.035156 19.664062 -2.492188 19.25 -1.953125 C 18.84375 -1.410156 18.109375 -0.945312 17.046875 -0.5625 C 15.992188 -0.1875 14.484375 0 12.515625 0 Z M 9.484375 -12.609375 C 9.785156 -12.128906 10.222656 -11.789062 10.796875 -11.59375 C 11.367188 -11.394531 11.945312 -11.320312 12.53125 -11.375 C 13.125 -11.4375 13.625 -11.601562 14.03125 -11.875 C 14.445312 -12.15625 14.65625 -12.535156 14.65625 -13.015625 C 14.65625 -13.535156 14.445312 -14 14.03125 -14.40625 C 13.625 -14.8125 12.984375 -15.015625 12.109375 -15.015625 C 11.265625 -15.015625 10.613281 -14.75 10.15625 -14.21875 C 9.707031 -13.6875 9.484375 -13.148438 9.484375 -12.609375 Z M 9.484375 -12.609375 "/></g></g></g><g fill="#8c52ff" fill-opacity="1"><g transform="translate(100.384445, 47.368414)"><g><path d="M 15.28125 0 C 14.226562 0 13.15625 -0.207031 12.0625 -0.625 C 10.976562 -1.050781 10.003906 -1.671875 9.140625 -2.484375 C 8.273438 -3.304688 7.644531 -4.289062 7.25 -5.4375 C 6.976562 -6.195312 6.78125 -7.132812 6.65625 -8.25 C 6.539062 -9.375 6.457031 -10.570312 6.40625 -11.84375 C 6.363281 -13.113281 6.34375 -14.351562 6.34375 -15.5625 C 5.164062 -15.59375 4.039062 -15.695312 2.96875 -15.875 C 1.894531 -16.050781 1.015625 -16.390625 0.328125 -16.890625 C -0.347656 -17.390625 -0.6875 -18.125 -0.6875 -19.09375 C -0.6875 -20.269531 -0.367188 -21.15625 0.265625 -21.75 C 0.898438 -22.34375 1.753906 -22.734375 2.828125 -22.921875 C 3.898438 -23.117188 5.070312 -23.234375 6.34375 -23.265625 C 6.375 -24.203125 6.457031 -25.160156 6.59375 -26.140625 C 6.726562 -27.128906 6.960938 -28.046875 7.296875 -28.890625 C 7.628906 -29.734375 8.097656 -30.421875 8.703125 -30.953125 C 9.304688 -31.484375 10.09375 -31.75 11.0625 -31.75 C 12.363281 -31.75 13.304688 -31.335938 13.890625 -30.515625 C 14.484375 -29.703125 14.851562 -28.644531 15 -27.34375 C 15.15625 -26.050781 15.222656 -24.691406 15.203125 -23.265625 C 16.765625 -23.296875 18.148438 -23.234375 19.359375 -23.078125 C 20.578125 -22.929688 21.53125 -22.597656 22.21875 -22.078125 C 22.914062 -21.566406 23.265625 -20.753906 23.265625 -19.640625 C 23.265625 -18.492188 22.867188 -17.628906 22.078125 -17.046875 C 21.296875 -16.472656 20.269531 -16.085938 19 -15.890625 C 17.726562 -15.703125 16.382812 -15.59375 14.96875 -15.5625 C 14.96875 -14.988281 14.957031 -14.390625 14.9375 -13.765625 C 14.925781 -13.148438 14.921875 -12.523438 14.921875 -11.890625 C 14.921875 -10.160156 15.039062 -8.929688 15.28125 -8.203125 C 15.46875 -7.660156 15.71875 -7.3125 16.03125 -7.15625 C 16.351562 -7.007812 16.753906 -6.925781 17.234375 -6.90625 C 17.722656 -6.894531 18.3125 -6.800781 19 -6.625 C 19.695312 -6.46875 20.242188 -6.09375 20.640625 -5.5 C 21.035156 -4.914062 21.234375 -4.171875 21.234375 -3.265625 C 21.234375 -2.234375 20.691406 -1.429688 19.609375 -0.859375 C 18.535156 -0.285156 17.09375 0 15.28125 0 Z M 15.28125 0 "/></g></g></g><g fill="#8c52ff" fill-opacity="1"><g transform="translate(122.018931, 47.368414)"><g><path d="M 9.84375 0 C 7.175781 0 5.054688 -0.4375 3.484375 -1.3125 C 1.921875 -2.1875 1.140625 -3.320312 1.140625 -4.71875 C 1.140625 -5.6875 1.460938 -6.40625 2.109375 -6.875 C 2.753906 -7.34375 3.53125 -7.578125 4.4375 -7.578125 C 5.164062 -7.578125 5.703125 -7.453125 6.046875 -7.203125 C 6.398438 -6.960938 6.710938 -6.722656 6.984375 -6.484375 C 7.253906 -6.242188 7.585938 -6.125 7.984375 -6.125 C 8.617188 -6.125 8.9375 -6.347656 8.9375 -6.796875 C 8.9375 -7.410156 8.578125 -7.851562 7.859375 -8.125 C 7.148438 -8.394531 6.269531 -8.769531 5.21875 -9.25 C 3.769531 -9.945312 2.726562 -10.753906 2.09375 -11.671875 C 1.457031 -12.597656 1.140625 -13.546875 1.140625 -14.515625 C 1.140625 -15.660156 1.546875 -16.75 2.359375 -17.78125 C 3.171875 -18.8125 4.328125 -19.65625 5.828125 -20.3125 C 7.328125 -20.976562 9.117188 -21.3125 11.203125 -21.3125 C 12.953125 -21.3125 14.519531 -21.070312 15.90625 -20.59375 C 17.300781 -20.113281 18.40625 -19.457031 19.21875 -18.625 C 20.039062 -17.789062 20.453125 -16.875 20.453125 -15.875 C 20.453125 -14.9375 20.148438 -14.222656 19.546875 -13.734375 C 18.941406 -13.253906 18.15625 -13.015625 17.1875 -13.015625 C 16.644531 -13.015625 16.210938 -13.097656 15.890625 -13.265625 C 15.578125 -13.429688 15.289062 -13.585938 15.03125 -13.734375 C 14.78125 -13.890625 14.425781 -13.96875 13.96875 -13.96875 C 13.726562 -13.96875 13.515625 -13.882812 13.328125 -13.71875 C 13.148438 -13.550781 13.0625 -13.347656 13.0625 -13.109375 C 13.0625 -12.929688 13.132812 -12.75 13.28125 -12.5625 C 13.4375 -12.382812 13.695312 -12.234375 14.0625 -12.109375 C 15 -11.804688 15.910156 -11.421875 16.796875 -10.953125 C 17.691406 -10.484375 18.429688 -9.878906 19.015625 -9.140625 C 19.609375 -8.398438 19.90625 -7.457031 19.90625 -6.3125 C 19.90625 -4.34375 18.984375 -2.796875 17.140625 -1.671875 C 15.296875 -0.554688 12.863281 0 9.84375 0 Z M 9.84375 0 "/></g></g></g></svg>